<svg width="200" height="200" xmlns="http://www.w3.org/2000/svg" xmlns:xlink="http://www.w3.org/1999/xlink"><rect width="200" height="200" fill="#088F8F"/><circle cx="109" cy="99" r="0.8443765149574052" fill="#FFF" opacity="0.7472929392055733"/><circle cx="60" cy="14" r="0.987488496920533" fill="#FFF" opacity="0.8435017980384694"/><circle cx="169" cy="148" r="1.2733449814298803" fill="#FFF" opacity="0.587684172766497"/><circle cx="170" cy="145" r="0.7977316239528492" fill="#FFF" opacity="0.5536184444622101"/><circle cx="49" cy="144" r="0.7897397662268736" fill="#FFF" opacity="0.840395462179615"/><circle cx="48" cy="89" r="1.1084594758042758" fill="#FFF" opacity="0.8424787653194525"/><circle cx="9" cy="182" r="0.824017673069845" fill="#FFF" opacity="0.9455809528799606"/><circle cx="94" cy="148" r="1.458131308615831" fill="#FFF" opacity="0.6619194861304707"/><circle cx="95" cy="158" r="1.4533851015436732" fill="#FFF" opacity="0.8520806250473192"/><circle cx="60" cy="65" r="0.9645771633966328" fill="#FFF" opacity="0.9433667014968214"/><circle cx="110" cy="175" r="0.7806562549595921" fill="#FFF" opacity="0.7009167258210665"/><circle cx="136" cy="165" r="0.8514733330420036" fill="#FFF" opacity="0.8233922311588922"/><circle cx="126" cy="75" r="1.2927591922578228" fill="#FFF" opacity="0.9033103840021188"/><circle cx="154" cy="11" r="1.2482422762463146" fill="#FFF" opacity="0.9779629208538905"/><circle cx="97" cy="111" r="0.7444586314528348" fill="#FFF" opacity="0.6857851984561725"/><circle cx="169" cy="3" r="0.868017729615188" fill="#FFF" opacity="0.8986261650127996"/><circle cx="46" cy="88" r="1.1519003735931852" fill="#FFF" opacity="0.6889328527573948"/><circle cx="141" cy="178" r="1.0879708376387622" fill="#FFF" opacity="0.6708638549974754"/><circle cx="35" cy="70" r="0.700648092273077" fill="#FFF" opacity="0.508165692767212"/><circle cx="138" cy="11" r="1.1353206710537336" fill="#FFF" opacity="0.7137967884426246"/><circle cx="0" cy="183" r="0.5494872218837227" fill="#FFF" opacity="0.6753825196543781"/><circle cx="182" cy="80" r="0.9138749261831505" fill="#FFF" opacity="0.7522495894125748"/><circle cx="41" cy="186" r="0.7106230677501709" fill="#FFF" opacity="0.696463642788804"/><circle cx="47" cy="68" r="0.6012939047077166" fill="#FFF" opacity="0.9000680924452736"/><circle cx="125" cy="153" r="0.8684013903109478" fill="#FFF" opacity="0.7266210385333127"/><circle cx="160" cy="96" r="0.6626193547055772" fill="#FFF" opacity="0.9278691470905982"/><circle cx="4" cy="52" r="1.0959050671740496" fill="#FFF" opacity="0.845173720486136"/><circle cx="111" cy="147" r="0.8815261804574918" fill="#FFF" opacity="0.5454349961160538"/><circle cx="198" cy="17" r="1.4922032904150861" fill="#FFF" opacity="0.9563807012185284"/><circle cx="134" cy="117" r="1.391527614679208" fill="#FFF" opacity="0.6873510640727857"/><circle cx="142" cy="36" r="0.8286085647197213" fill="#FFF" opacity="0.7454941095596384"/><circle cx="156" cy="118" r="1.3353136326503254" fill="#FFF" opacity="0.6518773567839318"/><circle cx="169" cy="28" r="0.6619888020921899" fill="#FFF" opacity="0.5825827008995645"/><circle cx="161" cy="177" r="1.264510569039491" fill="#FFF" opacity="0.6310915055021419"/><circle cx="103" cy="150" r="1.089483019036504" fill="#FFF" opacity="0.6475267474176881"/><circle cx="33" cy="44" r="0.6939378339011015" fill="#FFF" opacity="0.69265887636121"/><circle cx="59" cy="21" r="0.7744258800980528" fill="#FFF" opacity="0.9230198816632116"/><circle cx="114" cy="63" r="1.4544553694594637" fill="#FFF" opacity="0.9677843110552093"/><circle cx="104" cy="193" r="0.9686129715327592" fill="#FFF" opacity="0.5187439857328044"/><circle cx="170" cy="138" r="0.6293079485781743" fill="#FFF" opacity="0.6624050216691031"/><circle cx="129" cy="177" r="0.5508569796437478" fill="#FFF" opacity="0.623165006461418"/><circle cx="111" cy="135" r="1.317133290020862" fill="#FFF" opacity="0.7581200289065346"/><circle cx="85" cy="4" r="1.373123583082277" fill="#FFF" opacity="0.8333634510883884"/><circle cx="99" cy="55" r="1.0195445390657287" fill="#FFF" opacity="0.7257545884853731"/><circle cx="13" cy="9" r="0.8272534938292398" fill="#FFF" opacity="0.5727047495684207"/><circle cx="111" cy="140" r="1.2485325806054535" fill="#FFF" opacity="0.9072897302061902"/><circle cx="97" cy="124" r="1.3549907258466356" fill="#FFF" opacity="0.660966128149306"/><circle cx="39" cy="156" r="0.5530597462010152" fill="#FFF" opacity="0.8984116571324599"/><circle cx="60" cy="188" r="0.7174202662724295" fill="#FFF" opacity="0.6574712608146889"/><circle cx="173" cy="80" r="0.7969965315539985" fill="#FFF" opacity="0.5283520483221948"/><circle cx="44" cy="96" r="1.0010671870502534" fill="#FFF" opacity="0.8008620561458959"/><circle cx="125" cy="156" r="0.8179493335395627" fill="#FFF" opacity="0.9961343736638893"/><circle cx="51" cy="151" r="0.6024355184068395" fill="#FFF" opacity="0.8459853011611047"/><circle cx="67" cy="197" r="0.5172056622744653" fill="#FFF" opacity="0.912047150961736"/><circle cx="70" cy="64" r="1.3087070045273839" fill="#FFF" opacity="0.6701613638287893"/><circle cx="168" cy="58" r="1.3507486584500898" fill="#FFF" opacity="0.7356372506832922"/><circle cx="195" cy="197" r="0.9903793486358116" fill="#FFF" opacity="0.9569832892153044"/><circle cx="57" cy="143" r="1.1416214902553001" fill="#FFF" opacity="0.6679748956733021"/><circle cx="163" cy="178" r="0.713908118394679" fill="#FFF" opacity="0.8462044763044796"/><circle cx="40" cy="175" r="0.7880584775655104" fill="#FFF" opacity="0.6554994826048481"/><circle cx="148" cy="69" r="1.0551732418073179" fill="#FFF" opacity="0.6939176167599646"/><circle cx="116" cy="166" r="0.9394179062896516" fill="#FFF" opacity="0.6257683245913415"/><circle cx="157" cy="36" r="1.2623651475658406" fill="#FFF" opacity="0.5874743719557387"/><circle cx="136" cy="123" r="0.8963396270571351" fill="#FFF" opacity="0.9433429235578201"/><circle cx="20" cy="87" r="0.9623885952272544" fill="#FFF" opacity="0.7314031038867121"/><circle cx="91" cy="131" r="1.2085375116408823" fill="#FFF" opacity="0.9159707080867598"/><circle cx="30" cy="115" r="1.3473756575606939" fill="#FFF" opacity="0.5018815915389544"/><circle cx="17" cy="150" r="1.1160806096232285" fill="#FFF" opacity="0.850510404171094"/><circle cx="125" cy="116" r="1.4737304591366742" fill="#FFF" opacity="0.8726141819861778"/><circle cx="58" cy="175" r="1.4331958518468255" fill="#FFF" opacity="0.5773996492818294"/><circle cx="159" cy="3" r="1.4606105559181637" fill="#FFF" opacity="0.7668615497620859"/><circle cx="40" cy="64" r="0.8788982294499366" fill="#FFF" opacity="0.6297589875971199"/><circle cx="143" cy="14" r="0.8322047706520961" fill="#FFF" opacity="0.5105259220500737"/><circle cx="68" cy="183" r="1.1563988441676658" fill="#FFF" opacity="0.9299858001297951"/><circle cx="192" cy="178" r="1.0003937146846515" fill="#FFF" opacity="0.9056137012980234"/><circle cx="66" cy="140" r="1.458989954295756" fill="#FFF" opacity="0.8426705642010945"/><circle cx="196" cy="25" r="0.5924110507703734" fill="#FFF" opacity="0.8514392317158621"/><circle cx="200" cy="192" r="0.5010432740442667" fill="#FFF" opacity="0.900078283516468"/><circle cx="135" cy="152" r="0.9816761967885397" fill="#FFF" opacity="0.8980302007836305"/><circle cx="45" cy="70" r="0.5336610530610851" fill="#FFF" opacity="0.9801753323170777"/><circle cx="148" cy="122" r="0.9105197312400312" fill="#FFF" opacity="0.6069926816864264"/><circle cx="45" cy="31" r="1.2436247303181467" fill="#FFF" opacity="0.5293554387588104"/><circle cx="7" cy="42" r="1.1372270370553483" fill="#FFF" opacity="0.6275020820255206"/><circle cx="188" cy="172" r="1.0623978673855912" fill="#FFF" opacity="0.5767611965714255"/><circle cx="195" cy="155" r="1.3636917330086664" fill="#FFF" opacity="0.8269757866559866"/><circle cx="156" cy="37" r="1.0739102500799662" fill="#FFF" opacity="0.9544720570296644"/><circle cx="71" cy="45" r="0.6675337047320556" fill="#FFF" opacity="0.5918594941042519"/><circle cx="196" cy="142" r="1.0686062082111647" fill="#FFF" opacity="0.7688383143615395"/><circle cx="184" cy="62" r="1.0307360958585277" fill="#FFF" opacity="0.7237208643917665"/><circle cx="90" cy="38" r="1.421615236704756" fill="#FFF" opacity="0.7613459656838621"/><circle cx="174" cy="45" r="1.1015011391329803" fill="#FFF" opacity="0.6981854869302587"/><circle cx="77" cy="164" r="0.9660295933145193" fill="#FFF" opacity="0.7214917768571998"/><circle cx="125" cy="127" r="0.9815996915342107" fill="#FFF" opacity="0.7605237631940365"/><circle cx="74" cy="189" r="0.7780489700147825" fill="#FFF" opacity="0.7195070526870893"/><circle cx="179" cy="6" r="0.6063482589929591" fill="#FFF" opacity="0.6626025537970401"/><circle cx="38" cy="60" r="0.7298232035659002" fill="#FFF" opacity="0.7517084534083167"/><circle cx="171" cy="195" r="0.7825979937421249" fill="#FFF" opacity="0.7433471514377487"/><circle cx="73" cy="18" r="1.1930398934724202" fill="#FFF" opacity="0.9532678071231574"/><circle cx="14" cy="200" r="0.7011792699892571" fill="#FFF" opacity="0.7522749053031563"/><circle cx="29" cy="84" r="1.1880635178811583" fill="#FFF" opacity="0.6433162060962785"/><radialGradient id="spiralGradient" cx="50%" cy="50%" r="50%"><stop offset="0%" stop-color="#FFF" stop-opacity="1"/><stop offset="100%" stop-color="#FFF" stop-opacity="0.3"/></radialGradient><path d="M 100.0 100.0 L 100.19960534568565 100.01255810390586 L 100.39684588052579 100.05013329342572 L 100.58937235043722 100.11242878875143 L 100.7748665289029 100.19895190973189 L 100.95105651629515 100.30901699437494 L 101.1157317830659 100.44174946322161 L 101.26675787345243 100.5960910081911 L 101.40209068807019 100.77080587856274 L 101.51979026590362 100.96448823096219 L 101.6180339887499 101.17557050458494 L 101.69512913410674 101.40233277744711 L 101.74952470581138 101.64291305422886 L 101.77982247541459 101.89531843129566 L 101.78478717129633 102.15743707977221 L 101.76335575687742 102.42705098312484 L 101.71464574393279 102.70184936160645 L 101.63796249194583 102.97944271214914 L 101.53280544963427 103.25737738887767 L 101.39887330020177 103.53315064637536 L 101.23606797749979 103.80422606518061 L 101.04449752609239 104.06804927674025 L 100.82447778417719 104.32206390320623 L 100.5765328743958 104.5637276260466 L 100.3013944937407 104.7905282964557 L 100.0 105.0 L 99.67348929844756 105.18973898782701 L 99.32320053875276 105.35741938709818 L 98.95066463831994 105.50080860408066 L 98.55759865444384 105.61778233454606 L 98.14589803375031 105.70633909777092 L 97.71762777335499 105.76461421250715 L 97.27501253398353 105.79089313578253 L 96.82042575092868 105.7836240882895 L 96.35637779414282 105.7414298934137 L 95.88550323395269 105.66311896062463 L 95.41054727380943 105.54769534798568 L 94.9343514161277 105.39436784291844 L 94.45983843159728 105.20255800505804 L 93.98999670634885 104.97190712003977 L 93.52786404500043 104.70228201833979 L 93.07651101088348 104.39377971882777 L 92.63902388763155 104.04673086245441 L 92.21848734879224 103.66170190745963 L 91.81796692418338 103.23949606362517 L 91.44049135334362 102.78115294937453 L 91.0890349176166 102.28794696191666 L 90.76649984315033 101.76138435710581 L 90.47569886738101 101.20319904221732 L 90.21933806140294 100.61534709138726 L 90.0 100.0 L 89.82012737003163 99.359536700801 L 89.68200710632942 98.69653437093123 L 89.5877551422759 98.01375806539131 L 89.53930185981079 97.31414921861956 L 89.53837832075331 96.60081306187557 L 89.58650335805159 95.87700500993161 L 89.68497160188738 95.14611607615817 L 89.83484251149119 94.4116573804201 L 90.03693047907622 93.67724381924783 L 90.29179606750063 92.94657697249032 L 90.59973843813538 92.22342732506598 L 90.9607890199745 91.51161588648426 L 91.37470646529852 90.81499529449022 L 91.84097293121677 90.13743049246989 L 92.35879172019784 89.48277907312568 L 92.92708630627725 88.85487138337339 L 93.54450076703702 88.25749048741223 L 94.20940163471502 87.69435208646213 L 94.91988117295145 87.16908449474212 L 95.67376207875074 86.68520877186785 L 96.46860360225907 86.24611911197344 L 97.30170906996557 85.85506358950688 L 98.17013478996117 85.51512536080863 L 99.07070031096616 85.22920441926158 L 100.0 85.0 L 100.95441589684557 84.82999372789027 L 101.93013179689028 84.72143359975703 L 102.9231485075373 84.67631888863245 L 103.92930021720471 84.69638605416763 L 104.94427190999916 84.78309573927754 L 105.96361775349179 84.93762092861033 L 106.9827803816672 85.16083633955728 L 107.99711099008849 85.45330911127186 L 109.00189015564715 85.81529085156615 L 109.99234928897205 86.2467110956259 L 110.96369262367747 86.74717222425643 L 111.91111964315918 87.31594588286744 L 112.82984784261686 87.95197093565508 L 113.71513572140906 88.65385298247332 L 114.56230589874906 89.4198654587355 L 115.36676824413668 90.24795233138227 L 116.12404291280708 91.13573239652844 L 116.82978317586796 92.08050517688966 L 117.47979793469912 93.07925840952805 L 118.07007380960792 94.12867710687601 L 118.59679669366972 95.22515416643479 L 119.05637266413656 96.36480249703695 L 119.44544814576376 97.54346862213964 L 119.76092922287978 98.7567477133196 L 120.0 100.00000000000001 L 120.16013991425109 101.26836849449214 L 120.23913990681535 102.5567979647118 L 120.23511736501098 103.86005508046594 L 120.14652975147553 105.17274965302899 L 119.97218684219823 106.4893568818739 L 119.71126150083093 107.80424051691517 L 119.36329892277283 109.11167683949256 L 118.92822428894745 110.40587936059705 L 118.40634877594393 111.68102413054213 L 117.79837387624883 112.93127555043442 L 117.10539398962251 114.15081257242092 L 116.3288972542396 115.33385517280264 L 115.47076459398835 116.4746909797239 L 114.53326696627012 117.567701935288 L 113.51906080272687 118.6073908706238 L 112.43118164351272 119.58840787164675 L 111.27303597398013 120.50557631302641 L 110.0483912809357 121.35391843819806 L 108.76136435389533 122.1286803641404 L 107.41640786499872 122.82535639108369 L 106.01829526938948 123.43971249931288 L 104.57210407589166 123.96780891778 L 103.08319754568187 124.40602165233615 L 101.55720488432696 124.75106286502114 L 99.99999999999999 125.0 L 98.4176789078613 125.15027355639245 L 96.81653586746665 125.19971341338774 L 95.20303834660544 125.14655361865442 L 93.58380091114674 124.98944555711869 L 91.96555814625137 124.727469423674 L 90.35513671966142 124.36014393027217 L 88.75942670268206 123.8874341851029 L 87.18535226889436 123.30975768916676 L 85.63984189456289 122.627988403454 L 84.12979818810324 121.84345884812359 L 82.66206747883561 120.95796020350144 L 81.24340929755391 119.97374039134667 L 79.88046588316904 118.8935001236318 L 78.57973185083306 117.72038691501358 L 77.34752415750148 116.45798706418925 L 76.18995250084316 115.11031561840768 L 75.11289028675426 113.6818043444887 L 74.12194629947183 112.17728773876107 L 73.22243720641836 110.60198711731873 L 72.41936102744054 108.96149283687349 L 71.71737169504397 107.26174470521373 L 71.12075482857655 105.50901064882028 L 70.63340484109145 103.7098637135034 L 70.25880349283752 101.87115748197354 L 70.0 100.00000000000001 L 69.8595928014662 98.10372631021471 L 69.83971308003987 96.18986969964513 L 69.94201012770213 94.26613177367682 L 70.16763863723817 92.34035147532248 L 70.51724799485024 90.42047317437664 L 70.99097364028657 88.51451395623802 L 71.58843055256699 86.6305302448567 L 72.30870891061392 84.7765838983858 L 73.15037196903592 82.96070791966791 L 74.11145618000168 81.19087192664087 L 75.18947358261961 79.47494753009217 L 76.38141647154627 77.82067376791046 L 77.68376434672476 76.23562274606198 L 79.09249313624298 74.72716563695411 L 80.60308667434842 73.30243918562671 L 82.21055040669734 71.96831287333308 L 83.90942728500272 70.73135688653494 L 85.69381580341357 69.59781103714174 L 87.55739011925789 68.5735547769771 L 89.49342219125182 67.66407844596476 L 91.494805858962 66.8744558894008 L 93.5540827782511 66.2093185749331 L 95.66347011867508 65.67283133451906 L 97.8148899203799 65.26866985069614 L 100.00000000000004 65.0 L 102.21022628743187 64.86945915932483 L 104.4367964681764 64.87913957346748 L 106.6707747992518 65.03057387405869 L 108.9030979605018 65.32472283159501 L 111.12461179749815 65.76196541337448 L 113.32610880718538 66.34209121084531 L 115.49836621296866 67.0642952902369 L 117.63218447212279 67.92717551039459 L 119.71842605522707 68.92873234152584 L 121.74805433482155 70.06637120812698 L 123.71217241865128 71.33690736874067 L 125.60206176173297 72.73657333443923 L 127.40922039104508 74.26102881708131 L 129.12540057692482 75.90537318749952 L 130.74264578624803 77.66416041288606 L 132.253326754177 79.53141643180236 L 133.65017651368436 81.50065891449415 L 134.92632422518835 83.56491934558821 L 136.07532765246415 85.71676735583449 L 137.09120413551102 87.9483372193771 L 137.96845991624235 90.25135642313772 L 138.70211767871035 92.61717620532247 L 139.28774217205333 95.03680395085357 L 139.72146379144522 97.50093732273332 L 140.0 100.00000000000006 L 140.12067448281653 102.52417888507844 L 140.0814339331049 105.06346263599791 L 139.88086237958476 107.60768137218042 L 139.51819297404816 110.14654739632607 L 138.99331716810127 112.66969676937289 L 138.30679121859595 115.16673157060876 L 137.4598399720932 117.62726267079402 L 136.45435788982473 120.04095284263136 L 135.29290728598423 122.39756003012205 L 133.97871376374775 124.68698059628392 L 132.5156588451383 126.89929236739474 L 130.90826980266783 129.02479729137642 L 129.16170671256214 131.05406352815214 L 127.28174676124394 132.97796679080378 L 125.2747658485763 134.78773075812276 L 123.14771754309263 136.47496638168707 L 120.90810945601443 138.03170991390368 L 118.56397711223715 139.45045948751846 L 116.1238554075889 140.7242100819054 L 113.59674775249763 141.84648671698676 L 110.99209301268654 142.8113757218855 L 108.31973036760616 143.6135539323538 L 105.58986221696796 144.24831567862572 L 102.81301527491317 144.71159743358658 L 99.99999999999994 145.0 L 97.161868517275 145.11080812495788 L 94.30987119618057 145.0420074396773 L 91.45541205489096 144.7922986332282 L 88.61000316784958 144.36110877969128 L 85.78521825875237 143.74859974957704 L 82.99264566596784 142.9556736480372 L 80.24384087138061 141.9839752344233 L 77.55027878686006 140.83589129004403 L 74.9233059949829 139.51454691349426 L 72.37409314225371 138.0237987356225 L 69.91358768386182 136.36822505901722 L 67.55246717898014 134.5531129397749 L 65.30109333474081 132.58444224220557 L 63.16946699531723 130.4688667099873 L 61.167184270002494 128.21369211003866 L 59.30339399080285 125.8268515179876 L 57.58675668587699 123.316877826523 L 56.02540525015145 120.69287357006253 L 54.626907488653295 117.96447817101222 L 53.39823070153746 115.14183272437236 L 52.345708472471344 112.23554244851081 L 51.47500981400278 109.25663694053478 L 50.7911108148019 106.21652838478948 L 50.29826892427207 103.12696787255973 L 50.0 99.99999999999994 L 49.899058232900764 96.84791591962843 L 49.99741905375032 93.68320502835904 L 50.29626511312836 90.51850548196234 L 50.79597541466556 87.36655373202531 L 51.496117668947186 84.24013328687762 L 52.39544392252154 81.15202290254445 L 53.491889503246604 78.11494441355525 L 54.782575309736636 75.14151041635148 L 56.263813458995614 72.24417202008799 L 57.931116292502715 69.43516688079143 L 59.779208727103885 66.72646773511829 L 61.80204392311812 64.12973164933663 L 63.99282222815105 61.65625019763369 L 66.34401334126925 59.316900781438285 L 68.84738162849897 57.12209929812775 L 71.49401450711741 55.081754363292774 L 74.27435380296842 53.205223285657674 L 77.1782299721121 51.50126998782135 L 80.19489906556431 49.97802505921208 L 83.31308230375281 48.64294812006172 L 86.521008115665 47.50279266682816 L 89.80645648653669 46.563573560359316 L 93.15680544738909 45.830537308229495 L 96.5590795297937 45.30813528213071 L 100.00000000000006 45.0 L 103.46603667801814 44.908924590759405 L 106.94346113946247 45.03684554717793 L 110.41840109096628 45.384828859484905 L 113.87689570379888 45.953059609022375 L 117.30495168499702 46.74083508747139 L 120.68859986087904 47.74656149308033 L 124.01395204427021 48.967754240916555 L 127.26725795415717 50.40104190951737 L 130.43496195480708 52.04217383148559 L 133.50375938067103 53.886031320628035 L 136.46065221362508 55.92664251322488 L 139.29300388030674 58.15720078601099 L 141.9885929394733 60.57008669850754 L 144.53566543244062 63.15689339252572 L 146.92298567374692 65.90845536703652 L 149.13988526421736 68.81488053222252 L 151.1763101145617 71.86558543245994 L 153.02286527450877 75.04933351428684 L 154.67085737022921 78.35427630214102 L 156.1123344614141 81.76799733187816 L 157.340123138815 85.27755867984064 L 158.3478626932841 88.86954991360798 L 159.13003619834288 92.53013927956746 L 159.68199836001065 96.24512693214703" fill="none" stroke="url(#spiralGradient)" stroke-width="8" opacity="0.9"/></svg>